<svg xmlns="http://www.w3.org/2000/svg" width="25.772" height="26.354" viewBox="0 0 25.772 26.354">
  <g id="Grupo_1484" data-name="Grupo 1484" transform="translate(-165.382 -317.143)">
    <path id="Caminho_615" data-name="Caminho 615" d="M188.408,321.365a13.314,13.314,0,0,0-22.943,7.466,13.134,13.134,0,0,0,3.3,10.276,13.441,13.441,0,0,0,9.943,4.391,1.517,1.517,0,0,0,1.329-.812,1.572,1.572,0,0,0-1.351-2.305,9.823,9.823,0,0,1-4.429-.9,10.128,10.128,0,1,1,11.848-16.007,7.35,7.35,0,0,1,1.926,5.029v2.986a1.526,1.526,0,0,1-1.019,1.493,1.505,1.505,0,0,1-1.993-1.405v-5.819a1.593,1.593,0,0,0-1.174-1.581,1.554,1.554,0,0,0-1.7.659,6.855,6.855,0,0,0-5.138-1.1,6.7,6.7,0,1,0,6.245,11.088,4.7,4.7,0,0,0,4.031,1.274,4.939,4.939,0,0,0,3.875-4.7v-2.9a10.422,10.422,0,0,0-2.746-7.136Zm-9.146,12.428a3.635,3.635,0,0,1-4.5-4.457,3.582,3.582,0,0,1,2.524-2.481,3.606,3.606,0,1,1,1.971,6.938Z" transform="translate(0 0)" fill="#272962"/>
  </g>
</svg>
