<svg xmlns="http://www.w3.org/2000/svg" width="18.058" height="23.004" viewBox="0 0 18.058 23.004">
  <g id="Grupo_1219" data-name="Grupo 1219" transform="translate(-133.976 -326.134)">
    <path id="Caminho_617" data-name="Caminho 617" d="M143.074,326.177a7.53,7.53,0,0,0-6.518,8.026c.451,5.084,5.165,8.864,6.78,10.038a.908.908,0,0,0,1.071-.019c1.671-1.3,6.818-5.717,6.818-10.8a7.331,7.331,0,0,0-8.152-7.244Zm.807,10.149a2.9,2.9,0,1,1,2.912-2.905,2.906,2.906,0,0,1-2.912,2.905Z" transform="translate(-0.876 0)" fill="#272962"/>
    <path id="Caminho_618" data-name="Caminho 618" d="M152,355.271l-1.221-5.419a1.345,1.345,0,0,0-1.315-1.062h-.394a23.731,23.731,0,0,1-4.527,4.488,2.511,2.511,0,0,1-1.559.54,2.478,2.478,0,0,1-1.483-.484,22.393,22.393,0,0,1-4.715-4.543h-.281a1.365,1.365,0,0,0-1.334,1.062l-1.165,5.419a1.359,1.359,0,0,0,1.334,1.639h15.327A1.359,1.359,0,0,0,152,355.271Z" transform="translate(0 -7.772)" fill="#272962"/>
  </g>
</svg>
