<svg xmlns="http://www.w3.org/2000/svg" width="26.58" height="26.354" viewBox="0 0 26.58 26.354">
  <g id="Grupo_1216" data-name="Grupo 1216" transform="translate(-129.065 -324.824)">
    <path id="Caminho_613" data-name="Caminho 613" d="M142.365,324.824a13.177,13.177,0,1,0,13.28,13.187,13.26,13.26,0,0,0-13.28-13.187Zm0,23.506a10.33,10.33,0,1,1,10.408-10.319,10.387,10.387,0,0,1-10.408,10.319Z" transform="translate(0 0)" fill="#272962"/>
    <path id="Caminho_614" data-name="Caminho 614" d="M146.987,335.964a2.329,2.329,0,1,0-2.625-2.3,2.465,2.465,0,0,0,2.625,2.3Zm2.56,4.736a2.742,2.742,0,0,0-2.909-3.248h-2.276a.734.734,0,0,0-.765.677.53.53,0,0,0,.2.406,1.327,1.327,0,0,1,.438,1.314L143.05,344.1a2.748,2.748,0,0,0,2.932,3.248h2.254a.708.708,0,0,0,.766-.677.579.579,0,0,0-.175-.387,1.338,1.338,0,0,1-.459-1.333Z" transform="translate(-4.222 -1.531)" fill="#272962"/>
  </g>
</svg>
