<svg xmlns="http://www.w3.org/2000/svg" width="21.175" height="21.005" viewBox="0 0 21.175 21.005">
  <g id="Grupo_1218" data-name="Grupo 1218" transform="translate(-132.063 -327.969)">
    <path id="Caminho_616" data-name="Caminho 616" d="M152.159,343.032l-2.7-1.446c-.661-.347-1.167-.1-1.731.675-1.245,1.7-1.848,2.025-3.365,1.176a23,23,0,0,1-6.73-6.673c-.856-1.5-.506-2.1,1.187-3.336.778-.559,1.05-1.061.68-1.716l-1.439-2.681c-.6-1.137-1.44-1.253-2.685-.848-1.731.579-3.385,3.047-3.306,4.2a19.558,19.558,0,0,0,16.728,16.585c1.167.077,3.637-1.582,4.221-3.279.428-1.234.292-2.083-.856-2.661Z" transform="translate(0 0)" fill="#272962"/>
  </g>
</svg>
